<svg xmlns="http://www.w3.org/2000/svg" width="24" height="24" viewBox="0 0 12 12" shape-rendering="crispEdges" role="img" aria-label="briefcase"><rect x="4" y="1" width="4" height="1" fill="#9391FF"/><rect x="4" y="2" width="1" height="1" fill="#9391FF"/><rect x="7" y="2" width="1" height="1" fill="#9391FF"/><rect x="1" y="3" width="10" height="1" fill="#9391FF"/><rect x="1" y="4" width="1" height="1" fill="#9391FF"/><rect x="2" y="4" width="8" height="1" fill="#B1AEFF"/><rect x="10" y="4" width="1" height="1" fill="#9391FF"/><rect x="1" y="5" width="1" height="1" fill="#9391FF"/><rect x="2" y="5" width="8" height="1" fill="#B1AEFF"/><rect x="10" y="5" width="1" height="1" fill="#9391FF"/><rect x="1" y="6" width="4" height="1" fill="#9391FF"/><rect x="5" y="6" width="2" height="1" fill="#C5BCFF"/><rect x="7" y="6" width="4" height="1" fill="#9391FF"/><rect x="1" y="7" width="1" height="1" fill="#9391FF"/><rect x="2" y="7" width="3" height="1" fill="#B1AEFF"/><rect x="5" y="7" width="2" height="1" fill="#C5BCFF"/><rect x="7" y="7" width="3" height="1" fill="#B1AEFF"/><rect x="10" y="7" width="1" height="1" fill="#9391FF"/><rect x="1" y="8" width="1" height="1" fill="#9391FF"/><rect x="2" y="8" width="8" height="1" fill="#B1AEFF"/><rect x="10" y="8" width="1" height="1" fill="#9391FF"/><rect x="1" y="9" width="1" height="1" fill="#9391FF"/><rect x="2" y="9" width="8" height="1" fill="#B1AEFF"/><rect x="10" y="9" width="1" height="1" fill="#9391FF"/><rect x="1" y="10" width="10" height="1" fill="#9391FF"/></svg>
