<svg xmlns="http://www.w3.org/2000/svg" width="24" height="24" viewBox="0 0 12 12" shape-rendering="crispEdges" role="img" aria-label="chart"><rect x="8" y="1" width="2" height="1" fill="#B6C8EC"/><rect x="8" y="2" width="2" height="1" fill="#B6C8EC"/><rect x="8" y="3" width="2" height="1" fill="#B6C8EC"/><rect x="5" y="4" width="2" height="1" fill="#9EB1FF"/><rect x="8" y="4" width="2" height="1" fill="#B6C8EC"/><rect x="5" y="5" width="2" height="1" fill="#9EB1FF"/><rect x="8" y="5" width="2" height="1" fill="#B6C8EC"/><rect x="5" y="6" width="2" height="1" fill="#9EB1FF"/><rect x="8" y="6" width="2" height="1" fill="#B6C8EC"/><rect x="2" y="7" width="2" height="1" fill="#9EB1FF"/><rect x="5" y="7" width="2" height="1" fill="#9EB1FF"/><rect x="8" y="7" width="2" height="1" fill="#B6C8EC"/><rect x="2" y="8" width="2" height="1" fill="#9EB1FF"/><rect x="5" y="8" width="2" height="1" fill="#9EB1FF"/><rect x="8" y="8" width="2" height="1" fill="#B6C8EC"/><rect x="2" y="9" width="2" height="1" fill="#9EB1FF"/><rect x="5" y="9" width="2" height="1" fill="#9EB1FF"/><rect x="8" y="9" width="2" height="1" fill="#B6C8EC"/><rect x="0" y="10" width="12" height="1" fill="#89939F"/></svg>
